SplineFontDB: 3.0
FontName: Sofia_Numbers
FullName: Sofia Numbers Regular
FamilyName: Sofia Numbers
Weight: Book
Version: 1.0
ItalicAngle: 0
UnderlinePosition: -238
UnderlineWidth: 70
Ascent: 1638
Descent: 410
InvalidEm: 0
sfntRevision: 0x00010000
woffMajor: 1
woffMinor: 0
LayerCount: 2
Layer: 0 1 "Back" 1
Layer: 1 1 "Fore" 0
XUID: [1021 164 1713365385 11096573]
StyleMap: 0x0040
FSType: 4
OS2Version: 2
OS2_WeightWidthSlopeOnly: 0
OS2_UseTypoMetrics: 0
CreationTime: 1560870821
ModificationTime: 1560940711
PfmFamily: 81
TTFWeight: 400
TTFWidth: 5
LineGap: 0
VLineGap: 0
Panose: 0 0 0 0 0 0 0 0 0 0
OS2TypoAscent: 1638
OS2TypoAOffset: 0
OS2TypoDescent: -410
OS2TypoDOffset: 0
OS2TypoLinegap: 0
OS2WinAscent: 1572
OS2WinAOffset: 0
OS2WinDescent: 246
OS2WinDOffset: 0
HheadAscent: 1572
HheadAOffset: 0
HheadDescent: -246
HheadDOffset: 0
OS2SubXSize: 1300
OS2SubYSize: 1400
OS2SubXOff: 94
OS2SubYOff: 280
OS2SupXSize: 1300
OS2SupYSize: 1400
OS2SupXOff: -328
OS2SupYOff: 960
OS2StrikeYSize: 98
OS2StrikeYPos: 516
OS2CapHeight: 1598
OS2XHeight: 1146
OS2Vendor: 'Bird'
OS2CodePages: 203900ff.c9fd0000
OS2UnicodeRanges: 00000001.00000000.00000000.00000000
DEI: 91125
TtTable: prep
PUSHW_1
 511
SCANCTRL
PUSHB_1
 1
SCANTYPE
SVTCA[y-axis]
MPPEM
PUSHB_1
 8
LT
IF
PUSHB_2
 1
 1
INSTCTRL
EIF
PUSHB_2
 70
 6
CALL
IF
POP
PUSHB_1
 16
EIF
MPPEM
PUSHB_1
 20
GT
IF
POP
PUSHB_1
 128
EIF
SCVTCI
PUSHB_1
 6
CALL
NOT
IF
SVTCA[y-axis]
PUSHB_1
 2
DUP
RCVT
PUSHB_1
 3
CALL
WCVTP
PUSHB_1
 4
DUP
RCVT
PUSHW_3
 2
 512
 2
CALL
PUSHB_1
 3
CALL
WCVTP
PUSHB_1
 3
DUP
RCVT
PUSHB_3
 4
 121
 2
CALL
PUSHB_1
 3
CALL
WCVTP
PUSHB_1
 5
DUP
RCVT
PUSHW_3
 2
 569
 2
CALL
PUSHB_1
 3
CALL
WCVTP
SVTCA[x-axis]
PUSHB_1
 6
DUP
RCVT
PUSHB_1
 3
CALL
WCVTP
PUSHB_1
 9
DUP
RCVT
PUSHB_3
 6
 90
 2
CALL
PUSHB_2
 3
 70
SROUND
CALL
WCVTP
PUSHB_1
 8
DUP
RCVT
PUSHW_3
 9
 785
 2
CALL
PUSHB_2
 3
 70
SROUND
CALL
WCVTP
PUSHB_1
 7
DUP
RCVT
PUSHB_3
 8
 58
 2
CALL
PUSHB_2
 3
 70
SROUND
CALL
WCVTP
PUSHB_1
 10
DUP
RCVT
PUSHW_3
 6
 32767
 2
CALL
PUSHB_2
 3

StartChar: .notdef
Encoding: 65536 -1 0
Width: 1086
Flags: W
LayerCount: 2
Fore
SplineSet
0 102 m 1,0,1
 0 526 0 526 0 1372 c 1,2,3
 274 1372 274 1372 820 1372 c 1,4,5
 820 948 820 948 820 102 c 1,6,7
 546 102 546 102 0 102 c 1,0,1
102 204 m 1,8,9
 308 204 308 204 716 204 c 1,10,11
 716 560 716 560 716 1270 c 1,12,13
 512 1270 512 1270 102 1270 c 1,14,15
 102 914 102 914 102 204 c 1,8,9
EndSplineSet
Validated: 1
EndChar

StartChar: dollar
Encoding: 36 36 4
Width: 1152
GlyphClass: 2
Flags: W
LayerCount: 2
Fore
SplineSet
98 517 m 5,0,1
 162 517 162 517 290 517 c 5,2,3
 292 469 292 469 312 425 c 4,4,5
 334 381 334 381 378 343 c 4,6,7
 420 305 420 305 474 285 c 4,8,9
 528 267 528 267 594 267 c 4,10,11
 722 267 722 267 794 327 c 4,12,13
 864 387 864 387 878 475 c 5,14,15
 886 579 886 579 818 641 c 4,16,17
 748 703 748 703 638 727 c 4,18,19
 578 743 578 743 456 773 c 4,20,21
 284 817 284 817 198 909 c 4,22,23
 110 1001 110 1001 110 1141 c 4,24,25
 110 1221 110 1221 140 1289 c 260,26,27
 170 1357 170 1357 230 1411 c 260,28,29
 290 1465 290 1465 362 1497 c 260,30,31
 434 1529 434 1529 520 1537 c 5,32,33
 520 1593 520 1593 520 1707 c 5,34,35
 562 1707 562 1707 646 1707 c 5,36,37
 646 1649 646 1649 646 1535 c 5,38,39
 814 1511 814 1511 920 1403 c 4,40,41
 1024 1293 1024 1293 1024 1125 c 5,42,43
 960 1125 960 1125 834 1125 c 5,44,45
 834 1231 834 1231 758 1293 c 4,46,47
 684 1357 684 1357 566 1357 c 4,48,49
 512 1357 512 1357 466 1343 c 4,50,51
 420 1327 420 1327 380 1297 c 4,52,53
 342 1269 342 1269 322 1231 c 4,54,55
 302 1191 302 1191 302 1143 c 4,56,57
 302 1069 302 1069 352 1021 c 4,58,59
 402 971 402 971 504 947 c 4,60,61
 564 931 564 931 688 901 c 4,62,63
 890 851 890 851 988 737 c 4,64,65
 1070 643 1070 643 1070 513 c 4,66,67
 1070 487 1070 487 1066 457 c 4,68,69
 1048 311 1048 311 936 207 c 4,70,71
 826 105 826 105 646 91 c 5,72,73
 646 37 646 37 646 -71 c 5,74,75
 614 -71 614 -71 588 -71 c 260,76,77
 562 -71 562 -71 520 -71 c 5,78,79
 520 -17 520 -17 520 93 c 5,80,81
 428 103 428 103 352 139 c 4,82,83
 276 177 276 177 216 239 c 4,84,85
 158 299 158 299 128 369 c 260,86,87
 98 439 98 439 98 517 c 5,0,1
EndSplineSet
EndChar

StartChar: percent
Encoding: 37 37 5
Width: 1148
GlyphClass: 2
Flags: W
LayerCount: 2
Fore
SplineSet
38 1177 m 4,0,1
 38 1233 38 1233 58 1283 c 4,2,3
 78 1331 78 1331 116 1371 c 4,4,5
 156 1411 156 1411 206 1431 c 4,6,7
 254 1451 254 1451 312 1451 c 4,8,9
 368 1451 368 1451 416 1431 c 260,10,11
 464 1411 464 1411 504 1369 c 4,12,13
 546 1329 546 1329 566 1281 c 260,14,15
 586 1233 586 1233 586 1177 c 4,16,17
 586 1119 586 1119 566 1071 c 4,18,19
 546 1021 546 1021 506 981 c 4,20,21
 466 943 466 943 418 923 c 4,22,23
 368 903 368 903 312 903 c 4,24,25
 254 903 254 903 206 923 c 4,26,27
 156 943 156 943 116 981 c 4,28,29
 78 1021 78 1021 58 1071 c 4,30,31
 38 1119 38 1119 38 1177 c 4,0,1
96 111 m 5,32,33
 346 557 346 557 848 1451 c 5,34,35
 908 1451 908 1451 1028 1451 c 5,36,37
 854 1133 854 1133 680 815 c 4,38,39
 504 497 504 497 330 177 c 4,40,41
 320 161 320 161 312 145 c 4,42,43
 302 127 302 127 294 111 c 5,44,45
 228 111 228 111 96 111 c 5,32,33
182 1167 m 4,46,47
 182 1117 182 1117 218 1083 c 4,48,49
 252 1047 252 1047 302 1047 c 4,50,51
 350 1045 350 1045 388 1071 c 4,52,53
 414 1087 414 1087 430 1115 c 4,54,55
 446 1141 446 1141 442 1177 c 5,56,57
 442 1229 442 1229 404 1269 c 4,58,59
 366 1307 366 1307 312 1307 c 4,60,61
 276 1309 276 1309 250 1295 c 4,62,63
 222 1279 222 1279 206 1253 c 4,64,65
 180 1215 180 1215 182 1167 c 4,46,47
550 363 m 4,66,67
 550 421 550 421 570 469 c 4,68,69
 590 519 590 519 628 559 c 4,70,71
 668 599 668 599 718 619 c 4,72,73
 766 639 766 639 824 639 c 4,74,75
 880 639 880 639 928 619 c 260,76,77
 976 599 976 599 1016 557 c 4,78,79
 1058 517 1058 517 1078 469 c 260,80,81
 1098 421 1098 421 1098 363 c 4,82,83
 1098 307 1098 307 1078 257 c 4,84,85
 1058 209 1058 209 1018 169 c 260,86,87
 978 129 978 129 930 111 c 4,88,89
 880 91 880 91 824 91 c 4,90,91
 766 91 766 91 718 111 c 4,92,93
 668 129 668 129 628 169 c 4,94,95
 590 209 590 209 570 257 c 4,96,97
 550 307 550 307 550 363 c 4,66,67
694 353 m 4,98,99
 696 305 696 305 732 271 c 5,100,101
 764 235 764 235 814 233 c 4,102,103
 864 233 864 233 902 259 c 4,104,105
 926 275 926 275 942 303 c 4,106,107
 958 329 958 329 956 363 c 4,108,109
 956 417 956 417 916 457 c 4,110,111
 878 495 878 495 824 495 c 4,112,113
 790 497 790 497 762 481 c 4,114,115
 736 467 736 467 718 441 c 4,116,117
 694 403 694 403 694 353 c 4,98,99
EndSplineSet
EndChar

StartChar: plus
Encoding: 43 43 6
Width: 1148
GlyphClass: 2
Flags: W
LayerCount: 2
Fore
SplineSet
148 557 m 5,0,1
 148 617 148 617 148 735 c 5,2,3
 258 735 258 735 480 735 c 5,4,5
 480 815 480 815 480 893 c 4,6,7
 480 973 480 973 480 1051 c 4,8,9
 480 1055 480 1055 480 1059 c 260,10,11
 480 1063 480 1063 480 1067 c 5,12,13
 540 1067 540 1067 658 1067 c 5,14,15
 658 957 658 957 658 735 c 5,16,17
 770 735 770 735 992 735 c 5,18,19
 992 675 992 675 992 557 c 5,20,21
 880 557 880 557 658 557 c 5,22,23
 658 445 658 445 658 221 c 5,24,25
 600 221 600 221 480 221 c 5,26,27
 480 333 480 333 480 557 c 5,28,29
 370 557 370 557 148 557 c 5,0,1
EndSplineSet
EndChar

StartChar: comma
Encoding: 44 44 7
Width: 1148
GlyphClass: 2
Flags: W
LayerCount: 2
Fore
SplineSet
346 -66 m 5,0,1
 402 11 402 11 426 92 c 4,2,3
 434 120 434 120 432 268 c 5,4,5
 584 270 584 270 596 270 c 5,6,7
 586 138 586 138 542 44 c 4,8,9
 498 -52 498 -52 444 -98 c 5,10,11
 410 -88 410 -88 346 -66 c 5,0,1
EndSplineSet
EndChar

StartChar: hyphen
Encoding: 45 45 8
Width: 1148
GlyphClass: 2
Flags: W
LayerCount: 2
Fore
SplineSet
148 557 m 5,0,1
 148 617 148 617 148 735 c 5,2,3
 428 735 428 735 992 735 c 5,4,5
 992 691 992 691 992 653 c 4,6,7
 992 617 992 617 992 557 c 5,8,9
 710 557 710 557 148 557 c 5,0,1
EndSplineSet
EndChar

StartChar: period
Encoding: 46 46 9
Width: 1148
GlyphClass: 2
Flags: W
LayerCount: 2
Fore
SplineSet
424 190 m 260,0,1
 424 232 424 232 452 258 c 4,2,3
 480 286 480 286 522 286 c 260,4,5
 564 286 564 286 592 258 c 5,6,7
 624 232 624 232 624 190 c 260,8,9
 624 148 624 148 592 122 c 5,10,11
 564 94 564 94 522 94 c 260,12,13
 480 94 480 94 452 122 c 4,14,15
 424 148 424 148 424 190 c 260,0,1
EndSplineSet
EndChar

StartChar: zero
Encoding: 48 48 10
Width: 1148
GlyphClass: 2
Flags: W
LayerCount: 2
Fore
SplineSet
40 777 m 4,0,1
 40 1025 40 1025 110 1177 c 4,2,3
 180 1327 180 1327 282 1399 c 4,4,5
 338 1437 338 1437 400 1453 c 4,6,7
 462 1471 462 1471 524 1471 c 260,8,9
 586 1471 586 1471 648 1453 c 4,10,11
 710 1437 710 1437 764 1399 c 4,12,13
 868 1327 868 1327 938 1177 c 4,14,15
 1006 1025 1006 1025 1006 777 c 4,16,17
 1006 527 1006 527 938 377 c 4,18,19
 868 227 868 227 764 155 c 4,20,21
 710 117 710 117 648 99 c 260,22,23
 586 81 586 81 524 81 c 4,24,25
 408 81 408 81 300 145 c 4,26,27
 190 207 190 207 120 353 c 4,28,29
 84 431 84 431 62 537 c 4,30,31
 40 641 40 641 40 777 c 4,0,1
226 777 m 4,32,33
 226 703 226 703 244 587 c 4,34,35
 262 469 262 469 322 383 c 4,36,37
 356 337 356 337 406 307 c 4,38,39
 454 279 454 279 524 279 c 4,40,41
 592 279 592 279 642 307 c 4,42,43
 692 337 692 337 724 383 c 4,44,45
 786 469 786 469 804 587 c 4,46,47
 822 703 822 703 822 777 c 4,48,49
 822 849 822 849 804 967 c 4,50,51
 786 1083 786 1083 724 1169 c 4,52,53
 692 1217 692 1217 642 1245 c 4,54,55
 592 1275 592 1275 524 1275 c 4,56,57
 454 1275 454 1275 406 1245 c 4,58,59
 356 1217 356 1217 322 1169 c 4,60,61
 262 1083 262 1083 244 967 c 4,62,63
 226 849 226 849 226 777 c 4,32,33
EndSplineSet
EndChar

StartChar: one
Encoding: 49 49 11
Width: 1148
GlyphClass: 2
Flags: W
LayerCount: 2
Fore
SplineSet
166 112 m 5,0,1
 166 174 166 174 166 296 c 5,2,3
 258 296 258 296 442 296 c 5,4,5
 442 604 442 604 442 1218 c 5,6,7
 366 1192 366 1192 214 1138 c 5,8,9
 214 1196 214 1196 214 1314 c 5,10,11
 352 1364 352 1364 628 1464 c 5,12,13
 628 1076 628 1076 628 296 c 5,14,15
 720 296 720 296 902 296 c 5,16,17
 902 236 902 236 902 112 c 5,18,19
 656 112 656 112 166 112 c 5,0,1
EndSplineSet
EndChar

StartChar: two
Encoding: 50 50 12
Width: 1148
GlyphClass: 2
Flags: W
LayerCount: 2
Fore
SplineSet
86 1116 m 5,0,1
 100 1196 100 1196 134 1260 c 4,2,3
 170 1324 170 1324 228 1372 c 4,4,5
 288 1420 288 1420 356 1444 c 4,6,7
 426 1468 426 1468 506 1468 c 4,8,9
 596 1468 596 1468 670 1440 c 4,10,11
 746 1412 746 1412 806 1358 c 4,12,13
 866 1302 866 1302 896 1232 c 4,14,15
 926 1160 926 1160 926 1072 c 4,16,17
 926 982 926 982 890 896 c 4,18,19
 854 808 854 808 782 726 c 4,20,21
 660 582 660 582 418 296 c 5,22,23
 588 296 588 296 928 296 c 5,24,25
 928 236 928 236 928 112 c 5,26,27
 652 112 652 112 102 112 c 5,28,29
 102 140 102 140 102 194 c 5,30,31
 238 358 238 358 374 524 c 4,32,33
 510 688 510 688 646 852 c 4,34,35
 694 910 694 910 720 964 c 4,36,37
 744 1020 744 1020 744 1072 c 4,38,39
 744 1166 744 1166 674 1224 c 4,40,41
 606 1284 606 1284 506 1284 c 4,42,43
 414 1284 414 1284 346 1228 c 4,44,45
 278 1170 278 1170 264 1072 c 5,46,47
 204 1086 204 1086 86 1116 c 5,0,1
EndSplineSet
EndChar

StartChar: three
Encoding: 51 51 13
Width: 1148
GlyphClass: 2
Flags: W
LayerCount: 2
Fore
SplineSet
86 371 m 5,0,1
 140 401 140 401 248 459 c 5,2,3
 280 387 280 387 350 335 c 4,4,5
 420 281 420 281 498 275 c 5,6,7
 498 275 498 275 496 275 c 5,8,9
 554 271 554 271 604 287 c 4,10,11
 652 301 652 301 696 333 c 260,12,13
 740 365 740 365 764 405 c 4,14,15
 786 447 786 447 788 495 c 260,16,17
 790 543 790 543 770 585 c 260,18,19
 750 627 750 627 712 663 c 260,20,21
 674 699 674 699 628 717 c 4,22,23
 584 735 584 735 530 735 c 4,24,25
 478 735 478 735 378 735 c 5,26,27
 378 795 378 795 378 913 c 5,28,29
 428 913 428 913 530 913 c 4,30,31
 598 911 598 911 650 955 c 260,32,33
 702 999 702 999 714 1067 c 4,34,35
 722 1109 722 1109 716 1143 c 4,36,37
 710 1179 710 1179 692 1205 c 4,38,39
 668 1241 668 1241 628 1259 c 4,40,41
 590 1279 590 1279 536 1283 c 4,42,43
 464 1289 464 1289 404 1259 c 4,44,45
 346 1227 346 1227 302 1161 c 5,46,47
 256 1197 256 1197 164 1271 c 5,48,49
 220 1367 220 1367 324 1421 c 4,50,51
 416 1469 416 1469 522 1469 c 4,52,53
 536 1469 536 1469 552 1467 c 4,54,55
 634 1463 634 1463 700 1433 c 260,56,57
 766 1403 766 1403 818 1349 c 4,58,59
 872 1295 872 1295 898 1231 c 4,60,61
 924 1169 924 1169 922 1097 c 4,62,63
 922 1077 922 1077 918 1055 c 4,64,65
 916 1035 916 1035 910 1013 c 4,66,67
 890 953 890 953 854 907 c 260,68,69
 818 861 818 861 764 831 c 5,70,71
 814 813 814 813 854 777 c 260,72,73
 894 741 894 741 924 687 c 260,74,75
 954 633 954 633 966 579 c 4,76,77
 976 541 976 541 976 501 c 4,78,79
 976 485 976 485 974 471 c 4,80,81
 968 385 968 385 928 315 c 260,82,83
 888 245 888 245 814 189 c 4,84,85
 742 133 742 133 660 109 c 4,86,87
 598 91 598 91 530 91 c 4,88,89
 508 91 508 91 484 93 c 4,90,91
 354 101 354 101 246 177 c 4,92,93
 140 255 140 255 86 371 c 5,0,1
EndSplineSet
EndChar

StartChar: four
Encoding: 52 52 14
Width: 1148
GlyphClass: 2
Flags: W
LayerCount: 2
Fore
SplineSet
20 386 m 5,0,1
 252 742 252 742 718 1452 c 5,2,3
 764 1452 764 1452 856 1452 c 5,4,5
 856 1156 856 1156 856 562 c 5,6,7
 908 562 908 562 1012 562 c 5,8,9
 1012 504 1012 504 1012 386 c 5,10,11
 960 386 960 386 856 386 c 5,12,13
 856 318 856 318 856 250 c 4,14,15
 856 180 856 180 856 112 c 5,16,17
 794 112 794 112 672 112 c 5,18,19
 672 204 672 204 672 386 c 5,20,21
 456 386 456 386 20 386 c 5,0,1
336 556 m 5,22,23
 420 558 420 558 504 560 c 4,24,25
 588 560 588 560 672 562 c 5,26,27
 672 734 672 734 672 1082 c 5,28,29
 560 906 560 906 336 556 c 5,22,23
EndSplineSet
EndChar

StartChar: five
Encoding: 53 53 15
Width: 1148
GlyphClass: 2
Flags: W
LayerCount: 2
Fore
SplineSet
44 395 m 5,0,1
 98 423 98 423 204 481 c 5,2,3
 242 381 242 381 320 325 c 4,4,5
 396 267 396 267 490 267 c 4,6,7
 650 267 650 267 732 343 c 4,8,9
 812 419 812 419 812 539 c 4,10,11
 812 663 812 663 734 729 c 4,12,13
 654 797 654 797 536 797 c 4,14,15
 492 797 492 797 454 791 c 260,16,17
 416 785 416 785 380 771 c 4,18,19
 344 761 344 761 300 739 c 4,20,21
 258 717 258 717 204 685 c 5,22,23
 164 717 164 717 88 779 c 5,24,25
 128 1003 128 1003 206 1447 c 5,26,27
 444 1447 444 1447 920 1447 c 5,28,29
 920 1389 920 1389 920 1271 c 5,30,31
 732 1271 732 1271 358 1271 c 5,32,33
 332 1143 332 1143 284 891 c 5,34,35
 328 923 328 923 400 945 c 4,36,37
 474 969 474 969 536 969 c 4,38,39
 632 969 632 969 714 939 c 4,40,41
 796 911 796 911 862 853 c 4,42,43
 928 797 928 797 960 719 c 4,44,45
 994 639 994 639 994 539 c 4,46,47
 994 437 994 437 958 355 c 4,48,49
 924 273 924 273 854 211 c 260,50,51
 784 149 784 149 694 119 c 4,52,53
 602 89 602 89 490 89 c 4,54,55
 348 89 348 89 228 171 c 4,56,57
 106 253 106 253 44 395 c 5,0,1
EndSplineSet
EndChar

StartChar: six
Encoding: 54 54 16
Width: 1148
GlyphClass: 2
Flags: W
LayerCount: 2
Fore
SplineSet
88 705 m 4,0,1
 88 753 88 753 90 803 c 4,2,3
 96 929 96 929 116 1057 c 4,4,5
 130 1149 130 1149 170 1225 c 4,6,7
 208 1299 208 1299 270 1357 c 4,8,9
 332 1413 332 1413 408 1441 c 4,10,11
 476 1465 476 1465 558 1465 c 4,12,13
 566 1465 566 1465 574 1465 c 4,14,15
 702 1459 702 1459 800 1403 c 260,16,17
 898 1347 898 1347 960 1207 c 5,18,19
 904 1183 904 1183 794 1137 c 5,20,21
 756 1213 756 1213 700 1253 c 4,22,23
 642 1291 642 1291 568 1291 c 4,24,25
 498 1291 498 1291 442 1257 c 4,26,27
 384 1223 384 1223 344 1157 c 4,28,29
 302 1091 302 1091 286 1007 c 4,30,31
 270 925 270 925 280 823 c 5,32,33
 308 899 308 899 378 937 c 4,34,35
 446 975 446 975 554 975 c 4,36,37
 644 975 644 975 720 939 c 4,38,39
 794 905 794 905 854 835 c 4,40,41
 914 767 914 767 944 685 c 4,42,43
 970 613 970 613 970 533 c 4,44,45
 970 523 970 523 970 515 c 4,46,47
 964 425 964 425 930 347 c 4,48,49
 894 271 894 271 830 207 c 4,50,51
 766 145 766 145 688 115 c 4,52,53
 622 89 622 89 546 89 c 4,54,55
 532 89 532 89 520 91 c 4,56,57
 342 99 342 99 226 221 c 260,58,59
 110 343 110 343 92 549 c 4,60,61
 88 627 88 627 88 705 c 4,0,1
278 543 m 4,62,63
 278 489 278 489 296 443 c 4,64,65
 314 395 314 395 350 357 c 260,66,67
 386 319 386 319 430 299 c 4,68,69
 476 279 476 279 528 277 c 260,70,71
 580 275 580 275 624 291 c 4,72,73
 670 307 670 307 706 343 c 4,74,75
 744 379 744 379 766 423 c 4,76,77
 786 469 786 469 786 523 c 4,78,79
 792 633 792 633 722 709 c 4,80,81
 654 785 654 785 548 791 c 4,82,83
 494 791 494 791 448 775 c 4,84,85
 402 757 402 757 362 723 c 4,86,87
 322 687 322 687 300 643 c 4,88,89
 280 597 280 597 278 543 c 4,62,63
EndSplineSet
EndChar

StartChar: seven
Encoding: 55 55 17
Width: 1148
GlyphClass: 2
Flags: W
LayerCount: 2
Fore
SplineSet
70 112 m 5,0,1
 282 498 282 498 708 1270 c 5,2,3
 504 1270 504 1270 94 1270 c 5,4,5
 94 1330 94 1330 94 1452 c 5,6,7
 404 1452 404 1452 1020 1452 c 5,8,9
 836 1116 836 1116 652 782 c 4,10,11
 470 446 470 446 286 112 c 5,12,13
 214 112 214 112 70 112 c 5,0,1
EndSplineSet
EndChar

StartChar: eight
Encoding: 56 56 18
Width: 1148
GlyphClass: 2
Flags: W
LayerCount: 2
Fore
SplineSet
66 527 m 4,0,1
 66 639 66 639 120 735 c 4,2,3
 174 829 174 829 268 887 c 5,4,5
 220 935 220 935 194 993 c 4,6,7
 170 1051 170 1051 170 1123 c 260,8,9
 170 1195 170 1195 196 1255 c 260,10,11
 222 1315 222 1315 272 1365 c 4,12,13
 324 1415 324 1415 388 1441 c 4,14,15
 452 1465 452 1465 528 1465 c 4,16,17
 602 1465 602 1465 666 1441 c 4,18,19
 732 1415 732 1415 784 1365 c 260,20,21
 836 1315 836 1315 862 1255 c 260,22,23
 888 1195 888 1195 888 1123 c 260,24,25
 888 1051 888 1051 862 993 c 260,26,27
 836 935 836 935 784 887 c 5,28,29
 880 827 880 827 934 733 c 260,30,31
 988 639 988 639 988 527 c 4,32,33
 988 437 988 437 956 359 c 4,34,35
 922 281 922 281 856 217 c 4,36,37
 790 155 790 155 706 123 c 4,38,39
 624 91 624 91 526 91 c 260,40,41
 428 91 428 91 346 121 c 4,42,43
 264 153 264 153 196 215 c 4,44,45
 130 279 130 279 98 357 c 260,46,47
 66 435 66 435 66 527 c 4,0,1
250 527 m 4,48,49
 250 473 250 473 270 429 c 4,50,51
 290 383 290 383 330 347 c 4,52,53
 370 309 370 309 420 291 c 4,54,55
 468 273 468 273 528 273 c 4,56,57
 586 273 586 273 634 291 c 4,58,59
 684 309 684 309 724 347 c 4,60,61
 764 383 764 383 784 429 c 4,62,63
 804 473 804 473 804 527 c 260,64,65
 804 581 804 581 784 627 c 4,66,67
 764 671 764 671 724 711 c 4,68,69
 684 749 684 749 634 767 c 4,70,71
 586 787 586 787 528 787 c 4,72,73
 522 787 522 787 512 787 c 4,74,75
 458 785 458 785 410 765 c 4,76,77
 364 745 364 745 326 707 c 4,78,79
 288 667 288 667 268 623 c 4,80,81
 250 579 250 579 250 527 c 4,48,49
352 1123 m 260,82,83
 352 1057 352 1057 400 1009 c 4,84,85
 448 959 448 959 516 959 c 4,86,87
 522 959 522 959 534 959 c 4,88,89
 608 959 608 959 656 1009 c 4,90,91
 704 1057 704 1057 704 1123 c 260,92,93
 704 1189 704 1189 654 1235 c 4,94,95
 602 1281 602 1281 528 1281 c 260,96,97
 454 1281 454 1281 402 1235 c 4,98,99
 352 1189 352 1189 352 1123 c 260,82,83
EndSplineSet
EndChar

StartChar: nine
Encoding: 57 57 19
Width: 1148
GlyphClass: 2
Flags: W
LayerCount: 2
Fore
SplineSet
86 1021 m 4,0,1
 86 1031 86 1031 86 1039 c 4,2,3
 92 1129 92 1129 126 1207 c 4,4,5
 162 1283 162 1283 226 1347 c 4,6,7
 290 1409 290 1409 368 1439 c 4,8,9
 436 1465 436 1465 512 1465 c 4,10,11
 524 1465 524 1465 536 1463 c 4,12,13
 714 1455 714 1455 830 1333 c 260,14,15
 946 1211 946 1211 964 1003 c 4,16,17
 968 927 968 927 968 851 c 4,18,19
 968 801 968 801 966 751 c 4,20,21
 960 623 960 623 940 495 c 5,22,23
 940 495 940 495 940 497 c 5,24,25
 926 405 926 405 886 329 c 4,26,27
 848 253 848 253 784 197 c 4,28,29
 722 141 722 141 648 113 c 4,30,31
 578 87 578 87 498 87 c 4,32,33
 490 87 490 87 480 89 c 4,34,35
 352 95 352 95 256 151 c 4,36,37
 158 207 158 207 96 347 c 5,38,39
 152 371 152 371 262 417 c 5,40,41
 300 339 300 339 356 301 c 4,42,43
 414 263 414 263 488 263 c 4,44,45
 558 263 558 263 614 295 c 260,46,47
 670 327 670 327 710 395 c 4,48,49
 752 461 752 461 768 545 c 4,50,51
 786 629 786 629 776 731 c 5,52,53
 748 655 748 655 678 617 c 4,54,55
 610 579 610 579 502 579 c 4,56,57
 412 579 412 579 336 613 c 4,58,59
 262 647 262 647 202 717 c 4,60,61
 142 785 142 785 112 867 c 4,62,63
 86 941 86 941 86 1021 c 4,0,1
270 1031 m 4,64,65
 264 921 264 921 332 845 c 4,66,67
 402 769 402 769 508 763 c 4,68,69
 562 763 562 763 608 777 c 4,70,71
 654 793 654 793 694 829 c 260,72,73
 734 865 734 865 756 911 c 4,74,75
 776 957 776 957 778 1009 c 4,76,77
 778 1065 778 1065 760 1111 c 4,78,79
 742 1159 742 1159 704 1197 c 4,80,81
 670 1235 670 1235 624 1255 c 4,82,83
 580 1275 580 1275 528 1277 c 260,84,85
 476 1279 476 1279 430 1261 c 4,86,87
 386 1245 386 1245 348 1209 c 260,88,89
 310 1173 310 1173 290 1129 c 260,90,91
 270 1085 270 1085 270 1031 c 4,64,65
EndSplineSet
EndChar

StartChar: B
Encoding: 66 66 20
Width: 1148
GlyphClass: 2
Flags: W
LayerCount: 2
Fore
SplineSet
94 111 m 5,0,1
 94 583 94 583 94 1525 c 5,2,3
 268 1525 268 1525 612 1525 c 4,4,5
 788 1525 788 1525 892 1427 c 260,6,7
 996 1329 996 1329 996 1161 c 4,8,9
 996 1047 996 1047 950 973 c 4,10,11
 906 899 906 899 816 865 c 5,12,13
 874 853 874 853 920 821 c 4,14,15
 964 789 964 789 1000 737 c 260,16,17
 1036 685 1036 685 1054 631 c 260,18,19
 1072 577 1072 577 1072 519 c 4,20,21
 1072 433 1072 433 1044 361 c 260,22,23
 1016 289 1016 289 958 227 c 4,24,25
 902 169 902 169 826 141 c 4,26,27
 750 111 750 111 656 111 c 4,28,29
 470 111 470 111 94 111 c 5,0,1
288 289 m 5,30,31
 408 289 408 289 648 289 c 4,32,33
 748 289 748 289 812 359 c 4,34,35
 874 427 874 427 874 521 c 4,36,37
 874 567 874 567 858 611 c 4,38,39
 840 653 840 653 808 693 c 4,40,41
 776 731 776 731 734 751 c 4,42,43
 694 771 694 771 642 771 c 4,44,45
 524 771 524 771 288 771 c 5,46,47
 288 657 288 657 288 543 c 260,48,49
 288 429 288 429 288 313 c 4,50,51
 288 307 288 307 288 301 c 260,52,53
 288 295 288 295 288 289 c 5,30,31
288 939 m 5,54,55
 364 939 364 939 442 939 c 4,56,57
 518 939 518 939 596 939 c 4,58,59
 600 939 600 939 604 939 c 260,60,61
 608 939 608 939 612 939 c 4,62,63
 702 939 702 939 752 1001 c 4,64,65
 800 1061 800 1061 800 1155 c 4,66,67
 800 1247 800 1247 744 1297 c 4,68,69
 688 1349 688 1349 592 1349 c 4,70,71
 490 1349 490 1349 288 1349 c 5,72,73
 288 1213 288 1213 288 939 c 5,54,55
EndSplineSet
EndChar

StartChar: m
Encoding: 109 109 21
Width: 1148
GlyphClass: 2
Flags: W
LayerCount: 2
Fore
SplineSet
4 109 m 5,0,1
 4 429 4 429 4 1067 c 5,2,3
 64 1067 64 1067 184 1067 c 5,4,5
 184 1019 184 1019 184 925 c 5,6,7
 220 997 220 997 260 1037 c 4,8,9
 302 1079 302 1079 374 1085 c 5,10,11
 502 1085 502 1085 538 1033 c 260,12,13
 574 981 574 981 608 891 c 5,14,15
 660 989 660 989 716 1039 c 4,16,17
 774 1089 774 1089 864 1089 c 4,18,19
 1004 1089 1004 1089 1072 977 c 4,20,21
 1142 867 1142 867 1142 663 c 4,22,23
 1142 479 1142 479 1142 109 c 5,24,25
 1082 109 1082 109 966 109 c 5,26,27
 966 289 966 289 966 651 c 4,28,29
 966 769 966 769 936 837 c 4,30,31
 908 905 908 905 824 905 c 4,32,33
 822 905 822 905 819 905 c 4,34,35
 729 905 729 905 700 829 c 4,36,37
 672 749 672 749 672 627 c 4,38,39
 672 503 672 503 672 381 c 260,40,41
 672 259 672 259 672 135 c 4,42,43
 672 129 672 129 672 123 c 4,44,45
 672 115 672 115 672 109 c 5,46,47
 610 109 610 109 490 109 c 5,48,49
 490 291 490 291 490 653 c 4,50,51
 490 771 490 771 460 837 c 4,52,53
 430 905 430 905 356 905 c 4,54,55
 270 905 270 905 226 837 c 4,56,57
 184 767 184 767 184 627 c 4,58,59
 184 453 184 453 184 109 c 5,60,61
 124 109 124 109 4 109 c 5,0,1
EndSplineSet
EndChar

StartChar: sterling
Encoding: 163 163 23
Width: 1136
GlyphClass: 2
Flags: W
LayerCount: 2
Fore
SplineSet
64 112 m 5,0,1
 64 174 64 174 64 296 c 5,2,3
 106 296 106 296 188 296 c 5,4,5
 188 432 188 432 188 702 c 5,6,7
 146 702 146 702 64 702 c 5,8,9
 64 744 64 744 64 826 c 5,10,11
 106 826 106 826 188 826 c 5,12,13
 188 902 188 902 188 976 c 4,14,15
 188 1052 188 1052 188 1126 c 4,16,17
 188 1130 188 1130 188 1134 c 260,18,19
 188 1138 188 1138 188 1142 c 4,20,21
 188 1230 188 1230 218 1302 c 4,22,23
 250 1374 250 1374 310 1430 c 4,24,25
 374 1488 374 1488 448 1516 c 260,26,27
 522 1544 522 1544 608 1544 c 260,28,29
 694 1544 694 1544 766 1514 c 260,30,31
 838 1484 838 1484 896 1424 c 4,32,33
 954 1366 954 1366 984 1288 c 4,34,35
 1014 1212 1014 1212 1014 1114 c 5,36,37
 952 1114 952 1114 828 1114 c 5,38,39
 828 1202 828 1202 788 1264 c 4,40,41
 746 1328 746 1328 680 1346 c 4,42,43
 656 1354 656 1354 632 1356 c 4,44,45
 610 1358 610 1358 588 1354 c 4,46,47
 544 1352 544 1352 506 1336 c 260,48,49
 468 1320 468 1320 436 1290 c 4,50,51
 404 1262 404 1262 386 1224 c 4,52,53
 370 1188 370 1188 370 1142 c 4,54,55
 370 1038 370 1038 370 826 c 5,56,57
 476 826 476 826 684 826 c 5,58,59
 684 784 684 784 684 702 c 5,60,61
 580 702 580 702 370 702 c 5,62,63
 370 566 370 566 370 296 c 5,64,65
 540 296 540 296 878 296 c 4,66,67
 894 296 894 296 904 308 c 4,68,69
 912 318 912 318 912 342 c 4,70,71
 912 380 912 380 912 458 c 5,72,73
 974 458 974 458 1096 458 c 5,74,75
 1096 426 1096 426 1096 358 c 4,76,77
 1096 250 1096 250 1046 180 c 4,78,79
 996 112 996 112 900 112 c 4,80,81
 622 112 622 112 64 112 c 5,0,1
EndSplineSet
Validated: 1
EndChar

StartChar: uni00AD
Encoding: 173 173 24
Width: 1148
GlyphClass: 2
Flags: W
LayerCount: 2
Fore
SplineSet
148 557 m 5,0,1
 148 617 148 617 148 735 c 5,2,3
 428 735 428 735 992 735 c 5,4,5
 992 691 992 691 992 653 c 4,6,7
 992 617 992 617 992 557 c 5,8,9
 710 557 710 557 148 557 c 5,0,1
EndSplineSet
EndChar

StartChar: uni2010
Encoding: 8208 8208 36
Width: 1148
GlyphClass: 2
Flags: W
LayerCount: 2
Fore
SplineSet
148 422 m 1,0,1
 148 482 148 482 148 600 c 1,2,3
 428 600 428 600 992 600 c 1,4,5
 992 556 992 556 992 518 c 0,6,7
 992 482 992 482 992 422 c 1,8,9
 710 422 710 422 148 422 c 1,0,1
EndSplineSet
Validated: 1
EndChar

StartChar: uni2011
Encoding: 8209 8209 37
Width: 1148
GlyphClass: 2
Flags: W
LayerCount: 2
Fore
SplineSet
148 422 m 1,0,1
 148 482 148 482 148 600 c 1,2,3
 428 600 428 600 992 600 c 1,4,5
 992 556 992 556 992 518 c 0,6,7
 992 482 992 482 992 422 c 1,8,9
 710 422 710 422 148 422 c 1,0,1
EndSplineSet
Validated: 1
EndChar

StartChar: figuredash
Encoding: 8210 8210 38
Width: 1148
GlyphClass: 2
Flags: W
LayerCount: 2
Fore
SplineSet
148 422 m 1,0,1
 148 482 148 482 148 600 c 1,2,3
 428 600 428 600 992 600 c 1,4,5
 992 556 992 556 992 518 c 0,6,7
 992 482 992 482 992 422 c 1,8,9
 710 422 710 422 148 422 c 1,0,1
EndSplineSet
Validated: 1
EndChar

StartChar: endash
Encoding: 8211 8211 39
Width: 1328
GlyphClass: 2
Flags: W
LayerCount: 2
Fore
SplineSet
148 422 m 1,0,1
 148 482 148 482 148 600 c 1,2,3
 488 600 488 600 1172 600 c 1,4,5
 1172 556 1172 556 1172 518 c 0,6,7
 1172 482 1172 482 1172 422 c 1,8,9
 830 422 830 422 148 422 c 1,0,1
EndSplineSet
Validated: 1
EndChar

StartChar: emdash
Encoding: 8212 8212 40
Width: 2352
GlyphClass: 2
Flags: W
LayerCount: 2
Fore
SplineSet
148 422 m 1,0,1
 148 482 148 482 148 600 c 1,2,3
 827 600 827 600 2196 600 c 1,4,5
 2196 556 2196 556 2196 518 c 0,6,7
 2196 482 2196 482 2196 422 c 1,8,9
 1512 422 1512 422 148 422 c 1,0,1
EndSplineSet
Validated: 1
EndChar

StartChar: uni20ac
Encoding: 8364 8364 43
Width: 1148
GlyphClass: 2
Flags: W
LayerCount: 2
Fore
SplineSet
8 476 m 1,0,1
 8 514 8 514 8 590 c 1,2,3
 236 590 236 590 464 590 c 256,4,5
 692 590 692 590 920 590 c 0,6,7
 932 590 932 590 944 590 c 256,8,9
 956 590 956 590 968 590 c 1,10,11
 968 552 968 552 968 476 c 1,12,13
 784 476 784 476 416 476 c 1,14,15
 438 400 438 400 482 338 c 0,16,17
 524 274 524 274 586 226 c 256,18,19
 648 178 648 178 720 154 c 256,20,21
 792 130 792 130 874 130 c 0,22,23
 980 130 980 130 1076 172 c 0,24,25
 1172 216 1172 216 1260 304 c 1,26,27
 1302 260 1302 260 1388 172 c 1,28,29
 1278 60 1278 60 1148 4 c 0,30,31
 1020 -54 1020 -54 874 -54 c 0,32,33
 752 -54 752 -54 648 -16 c 0,34,35
 542 20 542 20 454 94 c 256,36,37
 366 168 366 168 308 264 c 256,38,39
 250 360 250 360 220 476 c 1,40,41
 150 476 150 476 8 476 c 1,0,1
8 714 m 1,42,43
 8 752 8 752 8 830 c 1,44,45
 78 830 78 830 218 830 c 1,46,47
 246 948 246 948 304 1044 c 256,48,49
 362 1140 362 1140 450 1216 c 0,50,51
 540 1290 540 1290 646 1330 c 0,52,53
 752 1368 752 1368 874 1368 c 0,54,55
 1020 1368 1020 1368 1148 1310 c 0,56,57
 1276 1254 1276 1254 1386 1142 c 1,58,59
 1344 1098 1344 1098 1258 1012 c 1,60,61
 1170 1098 1170 1098 1074 1142 c 0,62,63
 976 1184 976 1184 874 1184 c 0,64,65
 708 1184 708 1184 584 1084 c 0,66,67
 462 984 462 984 414 830 c 1,68,69
 598 830 598 830 968 830 c 1,70,71
 968 790 968 790 968 714 c 1,72,73
 740 714 740 714 512 714 c 256,74,75
 284 714 284 714 56 714 c 0,76,77
 44 714 44 714 32 714 c 256,78,79
 20 714 20 714 8 714 c 1,42,43
EndSplineSet
Validated: 1
EndChar

StartChar: uni25FC
Encoding: 9724 9724 44
Width: 1000
GlyphClass: 2
Flags: W
LayerCount: 2
Fore
SplineSet
0 0 m 1024,0,-1
EndSplineSet
Validated: 1
EndChar
